<?xml version="1.0" encoding="UTF-8"?><svg xmlns="http://www.w3.org/2000/svg" xmlns:xlink="http://www.w3.org/1999/xlink" fill-opacity="1" color-rendering="auto" color-interpolation="auto" text-rendering="auto" stroke="black" stroke-linecap="square" width="1164" stroke-miterlimit="10" shape-rendering="auto" stroke-opacity="1" fill="black" stroke-dasharray="none" font-weight="normal" stroke-width="1" height="893" font-family="'Dialog'" font-style="normal" stroke-linejoin="miter" font-size="12px" stroke-dashoffset="0" image-rendering="auto">
  <!--Generated by ySVG 2.5-->
  <defs id="genericDefs"/>
  <g>
    <defs id="defs1">
      <clipPath clipPathUnits="userSpaceOnUse" id="clipPath1">
        <path d="M0 0 L1164 0 L1164 893 L0 893 L0 0 Z"/>
      </clipPath>
      <clipPath clipPathUnits="userSpaceOnUse" id="clipPath2">
        <path d="M-315 -69 L849 -69 L849 824 L-315 824 L-315 -69 Z"/>
      </clipPath>
      <clipPath clipPathUnits="userSpaceOnUse" id="clipPath3">
        <path d="M213 70 L213 109 L362 109 L362 70 Z"/>
      </clipPath>
      <clipPath clipPathUnits="userSpaceOnUse" id="clipPath4">
        <path d="M237 169 L237 225 L339 225 L339 169 Z"/>
      </clipPath>
      <clipPath clipPathUnits="userSpaceOnUse" id="clipPath5">
        <path d="M370 313 L370 374 L482 374 L482 313 Z"/>
      </clipPath>
      <clipPath clipPathUnits="userSpaceOnUse" id="clipPath6">
        <path d="M-140 313 L-140 422 L-11 422 L-11 313 Z"/>
      </clipPath>
      <clipPath clipPathUnits="userSpaceOnUse" id="clipPath7">
        <path d="M453 460 L453 634 L582 634 L582 460 Z"/>
      </clipPath>
      <clipPath clipPathUnits="userSpaceOnUse" id="clipPath8">
        <path d="M415 732 L415 793 L515 793 L515 732 Z"/>
      </clipPath>
      <clipPath clipPathUnits="userSpaceOnUse" id="clipPath9">
        <path d="M285 732 L285 793 L385 793 L385 732 Z"/>
      </clipPath>
      <clipPath clipPathUnits="userSpaceOnUse" id="clipPath10">
        <path d="M535 732 L535 793 L635 793 L635 732 Z"/>
      </clipPath>
      <clipPath clipPathUnits="userSpaceOnUse" id="clipPath11">
        <path d="M655 732 L655 809 L755 809 L755 732 Z"/>
      </clipPath>
      <clipPath clipPathUnits="userSpaceOnUse" id="clipPath12">
        <path d="M27 313 L27 446 L176 446 L176 313 Z"/>
      </clipPath>
      <clipPath clipPathUnits="userSpaceOnUse" id="clipPath13">
        <path d="M-300 313 L-300 431 L-171 431 L-171 313 Z"/>
      </clipPath>
      <clipPath clipPathUnits="userSpaceOnUse" id="clipPath14">
        <path d="M-133 554 L-133 687 L24 687 L24 554 Z"/>
      </clipPath>
    </defs>
    <g fill="yellow" text-rendering="geometricPrecision" shape-rendering="geometricPrecision" transform="matrix(1,0,0,1,315,69)" stroke="yellow">
      <rect x="214" width="147" height="37" y="71" clip-path="url(#clipPath2)" stroke="none"/>
    </g>
    <g fill="yellow" text-rendering="geometricPrecision" shape-rendering="geometricPrecision" transform="matrix(1,0,0,1,315,69)" stroke="yellow">
      <rect x="213" width="1" height="39" y="70" clip-path="url(#clipPath2)" stroke="none"/>
      <rect x="214" width="147" height="1" y="70" clip-path="url(#clipPath2)" stroke="none"/>
      <rect x="214" y="108" clip-path="url(#clipPath2)" fill="rgb(178,178,0)" width="148" height="1" stroke="none"/>
      <rect x="361" y="70" clip-path="url(#clipPath2)" fill="rgb(178,178,0)" width="1" height="38" stroke="none"/>
    </g>
    <g font-size="13px" stroke-linecap="butt" transform="matrix(1,0,0,1,315,69)" text-rendering="geometricPrecision" font-family="sans-serif" shape-rendering="geometricPrecision" font-weight="bold" stroke-miterlimit="1.45">
      <text x="248.7556" xml:space="preserve" y="87.5684" clip-path="url(#clipPath3)" stroke="none">TidyModule</text>
    </g>
    <g fill="rgb(255,204,0)" text-rendering="geometricPrecision" shape-rendering="geometricPrecision" transform="matrix(1,0,0,1,315,69)" stroke="rgb(255,204,0)">
      <rect x="238" width="100" height="54" y="170" clip-path="url(#clipPath2)" stroke="none"/>
      <rect x="237" y="169" clip-path="url(#clipPath2)" fill="yellow" width="1" height="56" stroke="none"/>
      <rect x="238" y="169" clip-path="url(#clipPath2)" fill="yellow" width="100" height="1" stroke="none"/>
      <rect x="238" y="224" clip-path="url(#clipPath2)" fill="rgb(178,142,0)" width="101" height="1" stroke="none"/>
      <rect x="338" y="169" clip-path="url(#clipPath2)" fill="rgb(178,142,0)" width="1" height="55" stroke="none"/>
    </g>
    <g font-size="13px" stroke-linecap="butt" transform="matrix(1,0,0,1,315,69)" text-rendering="geometricPrecision" font-family="sans-serif" shape-rendering="geometricPrecision" font-weight="bold" stroke-miterlimit="1.45">
      <text x="270.0012" xml:space="preserve" y="186.5684" clip-path="url(#clipPath4)" stroke="none">Panel</text>
    </g>
    <g fill="white" text-rendering="geometricPrecision" shape-rendering="geometricPrecision" transform="matrix(1,0,0,1,315,69)" stroke="white">
      <line y2="194" fill="none" x1="238" clip-path="url(#clipPath4)" x2="338" y1="194"/>
      <line y2="204" fill="none" x1="238" clip-path="url(#clipPath4)" x2="338" y1="204"/>
    </g>
    <g text-rendering="geometricPrecision" stroke-miterlimit="1.45" shape-rendering="geometricPrecision" font-family="sans-serif" transform="matrix(1,0,0,1,315,69)" stroke-linecap="butt">
      <text x="242" xml:space="preserve" y="220.9121" clip-path="url(#clipPath4)" stroke="none">ui</text>
    </g>
    <g fill="rgb(255,204,0)" text-rendering="geometricPrecision" shape-rendering="geometricPrecision" transform="matrix(1,0,0,1,315,69)" stroke="rgb(255,204,0)">
      <rect x="371" width="110" height="59" y="314" clip-path="url(#clipPath2)" stroke="none"/>
      <rect x="370" y="313" clip-path="url(#clipPath2)" fill="yellow" width="1" height="61" stroke="none"/>
      <rect x="371" y="313" clip-path="url(#clipPath2)" fill="yellow" width="110" height="1" stroke="none"/>
      <rect x="371" y="373" clip-path="url(#clipPath2)" fill="rgb(178,142,0)" width="111" height="1" stroke="none"/>
      <rect x="481" y="313" clip-path="url(#clipPath2)" fill="rgb(178,142,0)" width="1" height="60" stroke="none"/>
    </g>
    <g font-size="13px" stroke-linecap="butt" transform="matrix(1,0,0,1,315,69)" text-rendering="geometricPrecision" font-family="sans-serif" shape-rendering="geometricPrecision" font-weight="bold" stroke-miterlimit="1.45">
      <text x="379.8796" xml:space="preserve" y="330.5684" clip-path="url(#clipPath5)" stroke="none">ClosablePanel</text>
    </g>
    <g fill="white" text-rendering="geometricPrecision" shape-rendering="geometricPrecision" transform="matrix(1,0,0,1,315,69)" stroke="white">
      <line y2="338" fill="none" x1="371" clip-path="url(#clipPath5)" x2="481" y1="338"/>
      <line y2="348" fill="none" x1="371" clip-path="url(#clipPath5)" x2="481" y1="348"/>
    </g>
    <g text-rendering="geometricPrecision" stroke-miterlimit="1.45" shape-rendering="geometricPrecision" font-family="sans-serif" transform="matrix(1,0,0,1,315,69)" stroke-linecap="butt">
      <text x="375.5" xml:space="preserve" y="364.9121" clip-path="url(#clipPath5)" stroke="none">ui</text>
    </g>
    <g fill="rgb(51,102,255)" text-rendering="geometricPrecision" shape-rendering="geometricPrecision" transform="matrix(1,0,0,1,315,69)" stroke="rgb(51,102,255)">
      <rect x="-139" width="127" height="107" y="314" clip-path="url(#clipPath2)" stroke="none"/>
      <rect x="-140" y="313" clip-path="url(#clipPath2)" fill="rgb(72,145,255)" width="1" height="109" stroke="none"/>
      <rect x="-139" y="313" clip-path="url(#clipPath2)" fill="rgb(72,145,255)" width="127" height="1" stroke="none"/>
      <rect x="-139" y="421" clip-path="url(#clipPath2)" fill="rgb(35,71,178)" width="128" height="1" stroke="none"/>
      <rect x="-12" y="313" clip-path="url(#clipPath2)" fill="rgb(35,71,178)" width="1" height="108" stroke="none"/>
    </g>
    <g stroke-linecap="butt" font-size="13px" transform="matrix(1,0,0,1,315,69)" fill="white" text-rendering="geometricPrecision" font-family="sans-serif" shape-rendering="geometricPrecision" stroke="white" font-weight="bold" stroke-miterlimit="1.45">
      <text x="-128.6936" xml:space="preserve" y="330.5684" clip-path="url(#clipPath6)" stroke="none">DatasetSelector</text>
    </g>
    <g fill="white" text-rendering="geometricPrecision" shape-rendering="geometricPrecision" transform="matrix(1,0,0,1,315,69)" stroke="white">
      <line y2="338" fill="none" x1="-139" clip-path="url(#clipPath6)" x2="-12" y1="338"/>
    </g>
    <g text-rendering="geometricPrecision" stroke-miterlimit="1.45" shape-rendering="geometricPrecision" font-family="sans-serif" transform="matrix(1,0,0,1,315,69)" stroke-linecap="butt">
      <text x="-136" xml:space="preserve" y="354.9121" clip-path="url(#clipPath6)" stroke="none">output(1):dataset</text>
    </g>
    <g fill="white" text-rendering="geometricPrecision" shape-rendering="geometricPrecision" transform="matrix(1,0,0,1,315,69)" stroke="white">
      <line y2="362" fill="none" x1="-139" clip-path="url(#clipPath6)" x2="-12" y1="362"/>
    </g>
    <g text-rendering="geometricPrecision" stroke-miterlimit="1.45" shape-rendering="geometricPrecision" font-family="sans-serif" transform="matrix(1,0,0,1,315,69)" stroke-linecap="butt">
      <text x="-136" xml:space="preserve" y="379.0449" clip-path="url(#clipPath6)" stroke="none">initialize</text>
      <text x="-136" xml:space="preserve" y="393.1777" clip-path="url(#clipPath6)" stroke="none">ui</text>
      <text x="-136" xml:space="preserve" y="407.3105" clip-path="url(#clipPath6)" stroke="none">server</text>
    </g>
    <g fill="rgb(255,204,0)" text-rendering="geometricPrecision" shape-rendering="geometricPrecision" transform="matrix(1,0,0,1,315,69)" stroke="rgb(255,204,0)">
      <rect x="454" width="127" height="172" y="461" clip-path="url(#clipPath2)" stroke="none"/>
      <rect x="453" y="460" clip-path="url(#clipPath2)" fill="yellow" width="1" height="174" stroke="none"/>
      <rect x="454" y="460" clip-path="url(#clipPath2)" fill="yellow" width="127" height="1" stroke="none"/>
      <rect x="454" y="633" clip-path="url(#clipPath2)" fill="rgb(178,142,0)" width="128" height="1" stroke="none"/>
      <rect x="581" y="460" clip-path="url(#clipPath2)" fill="rgb(178,142,0)" width="1" height="173" stroke="none"/>
    </g>
    <g font-size="13px" stroke-linecap="butt" transform="matrix(1,0,0,1,315,69)" text-rendering="geometricPrecision" font-family="sans-serif" shape-rendering="geometricPrecision" font-weight="bold" stroke-miterlimit="1.45">
      <text x="489.2148" xml:space="preserve" y="477.5684" clip-path="url(#clipPath7)" stroke="none">BasePlot</text>
    </g>
    <g fill="white" text-rendering="geometricPrecision" shape-rendering="geometricPrecision" transform="matrix(1,0,0,1,315,69)" stroke="white">
      <line y2="485" fill="none" x1="454" clip-path="url(#clipPath7)" x2="581" y1="485"/>
    </g>
    <g text-rendering="geometricPrecision" stroke-miterlimit="1.45" shape-rendering="geometricPrecision" font-family="sans-serif" transform="matrix(1,0,0,1,315,69)" stroke-linecap="butt">
      <text x="458" xml:space="preserve" y="501.9121" clip-path="url(#clipPath7)" stroke="none">input(1):data</text>
      <text x="458" xml:space="preserve" y="516.0449" clip-path="url(#clipPath7)" stroke="none">input(2):mapping</text>
      <text x="458" xml:space="preserve" y="530.1777" clip-path="url(#clipPath7)" stroke="none">output(1):selection</text>
    </g>
    <g fill="white" text-rendering="geometricPrecision" shape-rendering="geometricPrecision" transform="matrix(1,0,0,1,315,69)" stroke="white">
      <line y2="537" fill="none" x1="454" clip-path="url(#clipPath7)" x2="581" y1="537"/>
    </g>
    <g text-rendering="geometricPrecision" stroke-miterlimit="1.45" shape-rendering="geometricPrecision" font-family="sans-serif" transform="matrix(1,0,0,1,315,69)" stroke-linecap="butt">
      <text x="458" xml:space="preserve" y="554.3105" clip-path="url(#clipPath7)" stroke="none">initialize</text>
      <text x="458" xml:space="preserve" y="568.4434" clip-path="url(#clipPath7)" stroke="none">ui</text>
      <text x="458" xml:space="preserve" y="582.5762" clip-path="url(#clipPath7)" stroke="none">server</text>
      <text x="458" xml:space="preserve" y="596.709" clip-path="url(#clipPath7)" stroke="none">renderPlot</text>
      <text x="458" xml:space="preserve" y="610.8418" clip-path="url(#clipPath7)" stroke="none">aes</text>
      <text x="458" xml:space="preserve" y="624.9746" clip-path="url(#clipPath7)" stroke="none">chart</text>
    </g>
    <g fill="silver" text-rendering="geometricPrecision" shape-rendering="geometricPrecision" transform="matrix(1,0,0,1,315,69)" stroke="silver">
      <rect x="416" width="98" height="59" y="733" clip-path="url(#clipPath2)" stroke="none"/>
      <rect x="415" y="732" clip-path="url(#clipPath2)" fill="white" width="1" height="61" stroke="none"/>
      <rect x="416" y="732" clip-path="url(#clipPath2)" fill="white" width="98" height="1" stroke="none"/>
      <rect x="416" y="792" clip-path="url(#clipPath2)" fill="rgb(134,134,134)" width="99" height="1" stroke="none"/>
      <rect x="514" y="732" clip-path="url(#clipPath2)" fill="rgb(134,134,134)" width="1" height="60" stroke="none"/>
    </g>
    <g font-size="13px" stroke-linecap="butt" transform="matrix(1,0,0,1,315,69)" text-rendering="geometricPrecision" font-family="sans-serif" shape-rendering="geometricPrecision" font-weight="bold" stroke-miterlimit="1.45">
      <text x="440.0283" xml:space="preserve" y="749.5684" clip-path="url(#clipPath8)" stroke="none">BoxPlot</text>
    </g>
    <g fill="white" text-rendering="geometricPrecision" shape-rendering="geometricPrecision" transform="matrix(1,0,0,1,315,69)" stroke="white">
      <line y2="757" fill="none" x1="416" clip-path="url(#clipPath8)" x2="514" y1="757"/>
      <line y2="767" fill="none" x1="416" clip-path="url(#clipPath8)" x2="514" y1="767"/>
    </g>
    <g text-rendering="geometricPrecision" stroke-miterlimit="1.45" shape-rendering="geometricPrecision" font-family="sans-serif" transform="matrix(1,0,0,1,315,69)" stroke-linecap="butt">
      <text x="420" xml:space="preserve" y="783.9121" clip-path="url(#clipPath8)" stroke="none">chart</text>
    </g>
    <g fill="silver" text-rendering="geometricPrecision" shape-rendering="geometricPrecision" transform="matrix(1,0,0,1,315,69)" stroke="silver">
      <rect x="286" width="98" height="59" y="733" clip-path="url(#clipPath2)" stroke="none"/>
      <rect x="285" y="732" clip-path="url(#clipPath2)" fill="white" width="1" height="61" stroke="none"/>
      <rect x="286" y="732" clip-path="url(#clipPath2)" fill="white" width="98" height="1" stroke="none"/>
      <rect x="286" y="792" clip-path="url(#clipPath2)" fill="rgb(134,134,134)" width="99" height="1" stroke="none"/>
      <rect x="384" y="732" clip-path="url(#clipPath2)" fill="rgb(134,134,134)" width="1" height="60" stroke="none"/>
    </g>
    <g font-size="13px" stroke-linecap="butt" transform="matrix(1,0,0,1,315,69)" text-rendering="geometricPrecision" font-family="sans-serif" shape-rendering="geometricPrecision" font-weight="bold" stroke-miterlimit="1.45">
      <text x="308.1431" xml:space="preserve" y="749.5684" clip-path="url(#clipPath9)" stroke="none">LinePlot</text>
    </g>
    <g fill="white" text-rendering="geometricPrecision" shape-rendering="geometricPrecision" transform="matrix(1,0,0,1,315,69)" stroke="white">
      <line y2="757" fill="none" x1="286" clip-path="url(#clipPath9)" x2="384" y1="757"/>
      <line y2="767" fill="none" x1="286" clip-path="url(#clipPath9)" x2="384" y1="767"/>
    </g>
    <g text-rendering="geometricPrecision" stroke-miterlimit="1.45" shape-rendering="geometricPrecision" font-family="sans-serif" transform="matrix(1,0,0,1,315,69)" stroke-linecap="butt">
      <text x="290" xml:space="preserve" y="783.9121" clip-path="url(#clipPath9)" stroke="none">chart</text>
    </g>
    <g fill="silver" text-rendering="geometricPrecision" shape-rendering="geometricPrecision" transform="matrix(1,0,0,1,315,69)" stroke="silver">
      <rect x="536" width="98" height="59" y="733" clip-path="url(#clipPath2)" stroke="none"/>
      <rect x="535" y="732" clip-path="url(#clipPath2)" fill="white" width="1" height="61" stroke="none"/>
      <rect x="536" y="732" clip-path="url(#clipPath2)" fill="white" width="98" height="1" stroke="none"/>
      <rect x="536" y="792" clip-path="url(#clipPath2)" fill="rgb(134,134,134)" width="99" height="1" stroke="none"/>
      <rect x="634" y="732" clip-path="url(#clipPath2)" fill="rgb(134,134,134)" width="1" height="60" stroke="none"/>
    </g>
    <g font-size="13px" stroke-linecap="butt" transform="matrix(1,0,0,1,315,69)" text-rendering="geometricPrecision" font-family="sans-serif" shape-rendering="geometricPrecision" font-weight="bold" stroke-miterlimit="1.45">
      <text x="549.0881" xml:space="preserve" y="749.5684" clip-path="url(#clipPath10)" stroke="none">ScatterPlot</text>
    </g>
    <g fill="white" text-rendering="geometricPrecision" shape-rendering="geometricPrecision" transform="matrix(1,0,0,1,315,69)" stroke="white">
      <line y2="757" fill="none" x1="536" clip-path="url(#clipPath10)" x2="634" y1="757"/>
      <line y2="767" fill="none" x1="536" clip-path="url(#clipPath10)" x2="634" y1="767"/>
    </g>
    <g text-rendering="geometricPrecision" stroke-miterlimit="1.45" shape-rendering="geometricPrecision" font-family="sans-serif" transform="matrix(1,0,0,1,315,69)" stroke-linecap="butt">
      <text x="540" xml:space="preserve" y="783.9121" clip-path="url(#clipPath10)" stroke="none">chart</text>
    </g>
    <g fill="silver" text-rendering="geometricPrecision" shape-rendering="geometricPrecision" transform="matrix(1,0,0,1,315,69)" stroke="silver">
      <rect x="656" width="98" height="75" y="733" clip-path="url(#clipPath2)" stroke="none"/>
      <rect x="655" y="732" clip-path="url(#clipPath2)" fill="white" width="1" height="77" stroke="none"/>
      <rect x="656" y="732" clip-path="url(#clipPath2)" fill="white" width="98" height="1" stroke="none"/>
      <rect x="656" y="808" clip-path="url(#clipPath2)" fill="rgb(134,134,134)" width="99" height="1" stroke="none"/>
      <rect x="754" y="732" clip-path="url(#clipPath2)" fill="rgb(134,134,134)" width="1" height="76" stroke="none"/>
    </g>
    <g font-size="13px" stroke-linecap="butt" transform="matrix(1,0,0,1,315,69)" text-rendering="geometricPrecision" font-family="sans-serif" shape-rendering="geometricPrecision" font-weight="bold" stroke-miterlimit="1.45">
      <text x="659.646" xml:space="preserve" y="749.5684" clip-path="url(#clipPath11)" stroke="none">Scatter3DPlot</text>
    </g>
    <g fill="white" text-rendering="geometricPrecision" shape-rendering="geometricPrecision" transform="matrix(1,0,0,1,315,69)" stroke="white">
      <line y2="757" fill="none" x1="656" clip-path="url(#clipPath11)" x2="754" y1="757"/>
      <line y2="767" fill="none" x1="656" clip-path="url(#clipPath11)" x2="754" y1="767"/>
    </g>
    <g text-rendering="geometricPrecision" stroke-miterlimit="1.45" shape-rendering="geometricPrecision" font-family="sans-serif" transform="matrix(1,0,0,1,315,69)" stroke-linecap="butt">
      <text x="660" xml:space="preserve" y="783.9121" clip-path="url(#clipPath11)" stroke="none">ui</text>
      <text x="660" xml:space="preserve" y="798.0449" clip-path="url(#clipPath11)" stroke="none">renderPlot</text>
    </g>
    <g fill="rgb(51,102,255)" text-rendering="geometricPrecision" shape-rendering="geometricPrecision" transform="matrix(1,0,0,1,315,69)" stroke="rgb(51,102,255)">
      <rect x="28" width="147" height="131" y="314" clip-path="url(#clipPath2)" stroke="none"/>
      <rect x="27" y="313" clip-path="url(#clipPath2)" fill="rgb(72,145,255)" width="1" height="133" stroke="none"/>
      <rect x="28" y="313" clip-path="url(#clipPath2)" fill="rgb(72,145,255)" width="147" height="1" stroke="none"/>
      <rect x="28" y="445" clip-path="url(#clipPath2)" fill="rgb(35,71,178)" width="148" height="1" stroke="none"/>
      <rect x="175" y="313" clip-path="url(#clipPath2)" fill="rgb(35,71,178)" width="1" height="132" stroke="none"/>
    </g>
    <g stroke-linecap="butt" font-size="13px" transform="matrix(1,0,0,1,315,69)" fill="white" text-rendering="geometricPrecision" font-family="sans-serif" shape-rendering="geometricPrecision" stroke="white" font-weight="bold" stroke-miterlimit="1.45">
      <text x="68.7112" xml:space="preserve" y="330.5684" clip-path="url(#clipPath12)" stroke="none">DataFilter</text>
    </g>
    <g fill="white" text-rendering="geometricPrecision" shape-rendering="geometricPrecision" transform="matrix(1,0,0,1,315,69)" stroke="white">
      <line y2="338" fill="none" x1="28" clip-path="url(#clipPath12)" x2="175" y1="338"/>
    </g>
    <g text-rendering="geometricPrecision" stroke-miterlimit="1.45" shape-rendering="geometricPrecision" font-family="sans-serif" transform="matrix(1,0,0,1,315,69)" stroke-linecap="butt">
      <text x="32" xml:space="preserve" y="354.9121" clip-path="url(#clipPath12)" stroke="none">input(1):data</text>
      <text x="32" xml:space="preserve" y="369.0449" clip-path="url(#clipPath12)" stroke="none">output(1):dataSelected</text>
      <text x="32" xml:space="preserve" y="383.1777" clip-path="url(#clipPath12)" stroke="none">output(2):selectedRows</text>
    </g>
    <g fill="white" text-rendering="geometricPrecision" shape-rendering="geometricPrecision" transform="matrix(1,0,0,1,315,69)" stroke="white">
      <line y2="390" fill="none" x1="28" clip-path="url(#clipPath12)" x2="175" y1="390"/>
    </g>
    <g text-rendering="geometricPrecision" stroke-miterlimit="1.45" shape-rendering="geometricPrecision" font-family="sans-serif" transform="matrix(1,0,0,1,315,69)" stroke-linecap="butt">
      <text x="32" xml:space="preserve" y="407.3105" clip-path="url(#clipPath12)" stroke="none">initialize</text>
      <text x="32" xml:space="preserve" y="421.4434" clip-path="url(#clipPath12)" stroke="none">ui</text>
      <text x="32" xml:space="preserve" y="435.5762" clip-path="url(#clipPath12)" stroke="none">server</text>
    </g>
    <g fill="rgb(51,102,255)" text-rendering="geometricPrecision" shape-rendering="geometricPrecision" transform="matrix(1,0,0,1,315,69)" stroke="rgb(51,102,255)">
      <rect x="-299" width="127" height="116" y="314" clip-path="url(#clipPath2)" stroke="none"/>
      <rect x="-300" y="313" clip-path="url(#clipPath2)" fill="rgb(72,145,255)" width="1" height="118" stroke="none"/>
      <rect x="-299" y="313" clip-path="url(#clipPath2)" fill="rgb(72,145,255)" width="127" height="1" stroke="none"/>
      <rect x="-299" y="430" clip-path="url(#clipPath2)" fill="rgb(35,71,178)" width="128" height="1" stroke="none"/>
      <rect x="-172" y="313" clip-path="url(#clipPath2)" fill="rgb(35,71,178)" width="1" height="117" stroke="none"/>
    </g>
    <g stroke-linecap="butt" font-size="13px" transform="matrix(1,0,0,1,315,69)" fill="white" text-rendering="geometricPrecision" font-family="sans-serif" shape-rendering="geometricPrecision" stroke="white" font-weight="bold" stroke-miterlimit="1.45">
      <text x="-273.04" xml:space="preserve" y="330.5684" clip-path="url(#clipPath13)" stroke="none">ColSelector</text>
    </g>
    <g fill="white" text-rendering="geometricPrecision" shape-rendering="geometricPrecision" transform="matrix(1,0,0,1,315,69)" stroke="white">
      <line y2="338" fill="none" x1="-299" clip-path="url(#clipPath13)" x2="-172" y1="338"/>
    </g>
    <g text-rendering="geometricPrecision" stroke-miterlimit="1.45" shape-rendering="geometricPrecision" font-family="sans-serif" transform="matrix(1,0,0,1,315,69)" stroke-linecap="butt">
      <text x="-295" xml:space="preserve" y="354.9121" clip-path="url(#clipPath13)" stroke="none">input(1):data</text>
      <text x="-295" xml:space="preserve" y="369.0449" clip-path="url(#clipPath13)" stroke="none">output(1):mapping</text>
    </g>
    <g fill="white" text-rendering="geometricPrecision" shape-rendering="geometricPrecision" transform="matrix(1,0,0,1,315,69)" stroke="white">
      <line y2="376" fill="none" x1="-299" clip-path="url(#clipPath13)" x2="-172" y1="376"/>
    </g>
    <g text-rendering="geometricPrecision" stroke-miterlimit="1.45" shape-rendering="geometricPrecision" font-family="sans-serif" transform="matrix(1,0,0,1,315,69)" stroke-linecap="butt">
      <text x="-295" xml:space="preserve" y="393.1777" clip-path="url(#clipPath13)" stroke="none">initialize</text>
      <text x="-295" xml:space="preserve" y="407.3105" clip-path="url(#clipPath13)" stroke="none">ui</text>
      <text x="-295" xml:space="preserve" y="421.4434" clip-path="url(#clipPath13)" stroke="none">server</text>
    </g>
    <g fill="rgb(153,204,0)" text-rendering="geometricPrecision" shape-rendering="geometricPrecision" transform="matrix(1,0,0,1,315,69)" stroke="rgb(153,204,0)">
      <rect x="-132" width="155" height="131" y="555" clip-path="url(#clipPath2)" stroke="none"/>
      <rect x="-133" y="554" clip-path="url(#clipPath2)" fill="rgb(218,255,0)" width="1" height="133" stroke="none"/>
      <rect x="-132" y="554" clip-path="url(#clipPath2)" fill="rgb(218,255,0)" width="155" height="1" stroke="none"/>
      <rect x="-132" y="686" clip-path="url(#clipPath2)" fill="rgb(107,142,0)" width="156" height="1" stroke="none"/>
      <rect x="23" y="554" clip-path="url(#clipPath2)" fill="rgb(107,142,0)" width="1" height="132" stroke="none"/>
    </g>
    <g stroke-linecap="butt" font-size="13px" transform="matrix(1,0,0,1,315,69)" fill="white" text-rendering="geometricPrecision" font-family="sans-serif" shape-rendering="geometricPrecision" stroke="white" font-weight="bold" stroke-miterlimit="1.45">
      <text x="-100.6348" xml:space="preserve" y="571.5684" clip-path="url(#clipPath14)" stroke="none">PlotGenerator</text>
    </g>
    <g fill="white" text-rendering="geometricPrecision" shape-rendering="geometricPrecision" transform="matrix(1,0,0,1,315,69)" stroke="white">
      <line y2="579" fill="none" x1="-132" clip-path="url(#clipPath14)" x2="23" y1="579"/>
    </g>
    <g text-rendering="geometricPrecision" stroke-miterlimit="1.45" shape-rendering="geometricPrecision" font-family="sans-serif" transform="matrix(1,0,0,1,315,69)" stroke-linecap="butt">
      <text x="-128" xml:space="preserve" y="595.9121" clip-path="url(#clipPath14)" stroke="none">input(1):mappings</text>
      <text x="-128" xml:space="preserve" y="610.0449" clip-path="url(#clipPath14)" stroke="none">input(2):tables</text>
      <text x="-128" xml:space="preserve" y="624.1777" clip-path="url(#clipPath14)" stroke="none">output(2):selection</text>
    </g>
    <g fill="white" text-rendering="geometricPrecision" shape-rendering="geometricPrecision" transform="matrix(1,0,0,1,315,69)" stroke="white">
      <line y2="631" fill="none" x1="-132" clip-path="url(#clipPath14)" x2="23" y1="631"/>
    </g>
    <g text-rendering="geometricPrecision" stroke-miterlimit="1.45" shape-rendering="geometricPrecision" font-family="sans-serif" transform="matrix(1,0,0,1,315,69)" stroke-linecap="butt">
      <text x="-128" xml:space="preserve" y="648.3105" clip-path="url(#clipPath14)" stroke="none">initialize</text>
      <text x="-128" xml:space="preserve" y="662.4434" clip-path="url(#clipPath14)" stroke="none">ui</text>
      <text x="-128" xml:space="preserve" y="676.5762" clip-path="url(#clipPath14)" stroke="none">server</text>
      <text x="37.6719" xml:space="preserve" font-size="40px" y="5.1172" clip-path="url(#clipPath2)" stroke="none">Entity Relationship Diagram</text>
      <text x="638.5926" font-size="16px" y="340.3451" clip-path="url(#clipPath2)" stroke="none" font-weight="bold" xml:space="preserve">Inheritance</text>
      <path fill="none" d="M288 168.9965 L288 124.0248" clip-path="url(#clipPath2)"/>
      <path fill="white" d="M288 109.0248 L282 125.0248 L294 125.0248 Z" clip-path="url(#clipPath2)" stroke="none"/>
      <path fill="none" d="M288 109.0248 L282 125.0248 L294 125.0248 Z" clip-path="url(#clipPath2)"/>
      <path fill="none" d="M426.4662 312.978 L332.9326 234.6351" clip-path="url(#clipPath2)"/>
      <path fill="white" d="M321.4333 225.0035 L329.8465 239.8769 L337.5518 230.6775 Z" clip-path="url(#clipPath2)" stroke="none"/>
      <path fill="none" d="M321.4333 225.0035 L329.8465 239.8769 L337.5518 230.6775 Z" clip-path="url(#clipPath2)"/>
      <path fill="none" d="M-76.4553 313.0036 L15 278 L222.5024 221.4927" clip-path="url(#clipPath2)"/>
      <path fill="white" d="M236.9753 217.5514 L219.961 215.9662 L223.114 227.5446 Z" clip-path="url(#clipPath2)" stroke="none"/>
      <path fill="none" d="M236.9753 217.5514 L219.961 215.9662 L223.114 227.5446 Z" clip-path="url(#clipPath2)"/>
      <path fill="none" d="M478.5873 459.9809 L446.2682 387.7069" clip-path="url(#clipPath2)"/>
      <path fill="white" d="M440.1449 374.0137 L441.1991 391.0691 L452.1537 386.1705 Z" clip-path="url(#clipPath2)" stroke="none"/>
      <path fill="none" d="M440.1449 374.0137 L441.1991 391.0691 L452.1537 386.1705 Z" clip-path="url(#clipPath2)"/>
      <path fill="none" d="M472.4277 732.0112 L492.7449 648.6139" clip-path="url(#clipPath2)"/>
      <path fill="white" d="M496.2953 634.0402 L486.6787 648.1653 L498.3377 651.0057 Z" clip-path="url(#clipPath2)" stroke="none"/>
      <path fill="none" d="M496.2953 634.0402 L486.6787 648.1653 L498.3377 651.0057 Z" clip-path="url(#clipPath2)"/>
      <path fill="none" d="M360.82 732.0112 L443.2942 634.6238" clip-path="url(#clipPath2)"/>
      <path fill="white" d="M452.9881 623.1771 L438.0692 631.5094 L447.2267 639.2645 Z" clip-path="url(#clipPath2)" stroke="none"/>
      <path fill="none" d="M452.9881 623.1771 L438.0692 631.5094 L447.2267 639.2645 Z" clip-path="url(#clipPath2)"/>
      <path fill="none" d="M575.4501 732.0112 L549.2468 648.3544" clip-path="url(#clipPath2)"/>
      <path fill="white" d="M544.7632 634.0402 L543.8199 651.1021 L555.2714 647.5153 Z" clip-path="url(#clipPath2)" stroke="none"/>
      <path fill="none" d="M544.7632 634.0402 L543.8199 651.1021 L555.2714 647.5153 Z" clip-path="url(#clipPath2)"/>
      <path fill="none" d="M672.7048 732.0041 L591.6514 635.3885" clip-path="url(#clipPath2)"/>
      <path fill="white" d="M582.0108 623.8969 L587.6975 640.0109 L596.8908 632.2983 Z" clip-path="url(#clipPath2)" stroke="none"/>
      <path fill="none" d="M582.0108 623.8969 L587.6975 640.0109 L596.8908 632.2983 Z" clip-path="url(#clipPath2)"/>
      <path fill="none" d="M101.5228 313.0049 L230.2603 232.9191" clip-path="url(#clipPath2)"/>
      <path fill="white" d="M242.9969 224.9958 L226.2418 228.3526 L232.5805 238.5419 Z" clip-path="url(#clipPath2)" stroke="none"/>
      <path fill="none" d="M242.9969 224.9958 L226.2418 228.3526 L232.5805 238.5419 Z" clip-path="url(#clipPath2)"/>
      <path fill="none" d="M-235.5 312.9823 L-172 273 L222.1862 207.8736" clip-path="url(#clipPath2)"/>
      <path fill="white" d="M236.9856 205.4285 L220.2216 202.1168 L222.1776 213.9563 Z" clip-path="url(#clipPath2)" stroke="none"/>
      <path fill="none" d="M236.9856 205.4285 L220.2216 202.1168 L222.1776 213.9563 Z" clip-path="url(#clipPath2)"/>
      <path fill="none" d="M-54.5 553.9734 L232 481 L279.5815 239.6937" clip-path="url(#clipPath2)"/>
      <path fill="white" d="M282.4834 224.9771 L273.5014 239.5141 L285.2747 241.8355 Z" clip-path="url(#clipPath2)" stroke="none"/>
      <path fill="none" d="M282.4834 224.9771 L273.5014 239.5141 L285.2747 241.8355 Z" clip-path="url(#clipPath2)"/>
      <path fill="none" d="M582 334.2982 L603.7021 334.2982" clip-path="url(#clipPath2)"/>
      <path fill="white" d="M618.7021 334.2982 L602.7021 328.2982 L602.7021 340.2982 Z" clip-path="url(#clipPath2)" stroke="none"/>
      <path fill="none" d="M618.7021 334.2982 L602.7021 328.2982 L602.7021 340.2982 Z" clip-path="url(#clipPath2)"/>
    </g>
    <g fill="rgb(104,176,227)" text-rendering="geometricPrecision" shape-rendering="geometricPrecision" transform="matrix(1,0,0,1,315,69)" stroke="rgb(104,176,227)">
      <path d="M574.9692 64 L574.9692 356 L833.9692 356 L833.9692 64 ZM575.9692 86 L575.9692 355 L832.9692 355 L832.9692 86 Z" fill-rule="evenodd" clip-path="url(#clipPath2)" stroke="none"/>
    </g>
    <g stroke-linecap="butt" transform="matrix(1,0,0,1,315,69)" fill="white" text-rendering="geometricPrecision" font-family="sans-serif" shape-rendering="geometricPrecision" stroke="white" stroke-miterlimit="1.45">
      <text x="576.9692" xml:space="preserve" y="77.6016" clip-path="url(#clipPath2)" stroke="none">legend</text>
    </g>
    <g fill="yellow" text-rendering="geometricPrecision" shape-rendering="geometricPrecision" transform="matrix(1,0,0,1,315,69)" stroke="yellow">
      <rect x="589.8231" width="30" height="30" y="96.5299" clip-path="url(#clipPath2)" stroke="none"/>
    </g>
    <g text-rendering="geometricPrecision" stroke-miterlimit="1.45" shape-rendering="geometricPrecision" transform="matrix(1,0,0,1,315,69)" stroke-linecap="butt">
      <rect fill="none" x="589.8231" width="30" height="30" y="96.5299" clip-path="url(#clipPath2)"/>
      <text x="639.5547" font-size="16px" y="117.5768" clip-path="url(#clipPath2)" font-family="sans-serif" stroke="none" font-weight="bold" xml:space="preserve">root module</text>
    </g>
    <g fill="rgb(255,204,0)" text-rendering="geometricPrecision" shape-rendering="geometricPrecision" transform="matrix(1,0,0,1,315,69)" stroke="rgb(255,204,0)">
      <rect x="589.8231" width="30" height="30" y="140.4527" clip-path="url(#clipPath2)" stroke="none"/>
    </g>
    <g text-rendering="geometricPrecision" stroke-miterlimit="1.45" shape-rendering="geometricPrecision" transform="matrix(1,0,0,1,315,69)" stroke-linecap="butt">
      <rect fill="none" x="589.8231" width="30" height="30" y="140.4527" clip-path="url(#clipPath2)"/>
      <text x="640.2144" font-size="16px" y="161.4995" clip-path="url(#clipPath2)" font-family="sans-serif" stroke="none" font-weight="bold" xml:space="preserve">abstract module</text>
    </g>
    <g fill="rgb(51,102,255)" text-rendering="geometricPrecision" shape-rendering="geometricPrecision" transform="matrix(1,0,0,1,315,69)" stroke="rgb(51,102,255)">
      <rect x="589.8231" width="30" height="30" y="187.0299" clip-path="url(#clipPath2)" stroke="none"/>
    </g>
    <g text-rendering="geometricPrecision" stroke-miterlimit="1.45" shape-rendering="geometricPrecision" transform="matrix(1,0,0,1,315,69)" stroke-linecap="butt">
      <rect fill="none" x="589.8231" width="30" height="30" y="187.0299" clip-path="url(#clipPath2)"/>
      <text x="638.7031" font-size="16px" y="208.0768" clip-path="url(#clipPath2)" font-family="sans-serif" stroke="none" font-weight="bold" xml:space="preserve">data module</text>
    </g>
    <g fill="rgb(153,204,0)" text-rendering="geometricPrecision" shape-rendering="geometricPrecision" transform="matrix(1,0,0,1,315,69)" stroke="rgb(153,204,0)">
      <rect x="589.8231" width="30" height="30" y="230.9527" clip-path="url(#clipPath2)" stroke="none"/>
    </g>
    <g text-rendering="geometricPrecision" stroke-miterlimit="1.45" shape-rendering="geometricPrecision" transform="matrix(1,0,0,1,315,69)" stroke-linecap="butt">
      <rect fill="none" x="589.8231" width="30" height="30" y="230.9527" clip-path="url(#clipPath2)"/>
      <text x="637.0273" font-size="16px" y="251.9995" clip-path="url(#clipPath2)" font-family="sans-serif" stroke="none" font-weight="bold" xml:space="preserve">plot generator module</text>
    </g>
    <g fill="silver" text-rendering="geometricPrecision" shape-rendering="geometricPrecision" transform="matrix(1,0,0,1,315,69)" stroke="silver">
      <rect x="589.8231" width="30" height="30" y="278.8754" clip-path="url(#clipPath2)" stroke="none"/>
    </g>
    <g text-rendering="geometricPrecision" stroke-miterlimit="1.45" shape-rendering="geometricPrecision" transform="matrix(1,0,0,1,315,69)" stroke-linecap="butt">
      <rect fill="none" x="589.8231" width="30" height="30" y="278.8754" clip-path="url(#clipPath2)"/>
      <text x="639.0234" font-size="16px" y="299.9223" clip-path="url(#clipPath2)" font-family="sans-serif" stroke="none" font-weight="bold" xml:space="preserve">plotting module</text>
    </g>
  </g>
</svg>
